<?xml version="1.0" standalone="no"?><!DOCTYPE svg PUBLIC "-//W3C//DTD SVG 1.1//EN" "http://www.w3.org/Graphics/SVG/1.1/DTD/svg11.dtd"><svg class="icon" width="200px" height="135.27px" viewBox="0 0 1514 1024" version="1.1" xmlns="http://www.w3.org/2000/svg"><path fill="#333333" d="M1363.080 11.985c-21.731-21.731-47.838-32.592-78.363-32.592h-1109.603c-30.515 0-56.63 10.861-78.37 32.592-21.731 21.731-32.592 47.845-32.592 78.363v843.296c0 30.515 10.861 56.639 32.592 78.37 21.74 21.731 47.855 32.592 78.37 32.592h1109.62c30.508 0 56.622-10.861 78.353-32.592s32.601-47.855 32.601-78.37v-843.296c0-30.515-10.869-56.63-32.609-78.363zM1306.902 933.635c0 6.019-2.188 11.211-6.58 15.612-4.391 4.384-9.593 6.572-15.602 6.572h-1109.603c-6.010 0-11.211-2.188-15.602-6.572-4.391-4.401-6.589-9.593-6.589-15.612v-843.296c0-6.010 2.188-11.201 6.589-15.602 4.391-4.384 9.593-6.58 15.602-6.58h1109.62c6.002 0 11.201 2.197 15.585 6.58 4.384 4.401 6.58 9.593 6.58 15.602v843.296z"  /><path fill="#333333" d="M374.851 423.229c36.994 0 68.428-12.939 94.322-38.831 25.886-25.893 38.831-57.328 38.831-94.314 0-36.994-12.956-68.428-38.831-94.322-25.893-25.886-57.328-38.831-94.322-38.831-36.986 0-68.419 12.947-94.314 38.831-25.886 25.893-38.831 57.328-38.831 94.322 0 36.986 12.939 68.428 38.831 94.314s57.328 38.831 94.314 38.831zM574.577 622.955l-110.963-110.955-221.917 221.917v133.153h976.449v-310.689l-288.49-288.498z"  /></svg>